<svg xmlns="http://www.w3.org/2000/svg" fill="none" viewBox="0 0 24 24" id="Story-Add--Streamline-Outlined-Expansion" height="24" width="24"><desc>Story Add Streamline Icon: https://streamlinehq.com</desc><g id="story-add"><path id="Union" fill="#000000" fill-rule="evenodd" d="M5.68008 7.0943 4.257 5.67121C3.04458 7.15279 2.249 8.98872 2.04932 10.9999h2.01251c0.18215 -1.46067 0.7581 -2.79908 1.61825 -3.9056Zm-1.61825 5.9056H2.04932c0.50172 5.0534 4.76527 9 9.95058 9 5.5229 0 10 -4.4771 10 -10 0 -5.18531 -3.9466 -9.44886 -9 -9.95058v2.01251c3.9464 0.4921 7 3.85849 7 7.93807 0 4.4183 -3.5817 8 -8 8 -4.07958 0 -7.44597 -3.0536 -7.93807 -7Zm6.93807 -8.93807V2.04932C8.98872 2.249 7.15279 3.04458 5.67121 4.257L7.0943 5.68008c1.10652 -0.86015 2.44493 -1.4361 3.9056 -1.61825ZM11 11V7h2v4h4v2h-4v4h-2v-4H7v-2h4Z" clip-rule="evenodd" stroke-width="1"></path></g></svg>