<svg xmlns="http://www.w3.org/2000/svg" fill="none" viewBox="0 0 24 24" id="Watch-Time--Streamline-Outlined-Expansion" height="24" width="24"><desc>Watch Time Streamline Icon: https://streamlinehq.com</desc><g id="watch-time"><path id="Union" fill="#000000" fill-rule="evenodd" d="M9.7501 2h-0.74008l-0.21627 0.70778 -1.16977 3.82834C6.02426 7.81899 5 9.78988 5 12c0 2.2101 1.02426 4.181 2.62398 5.4639l1.16977 3.8283 0.21627 0.7078h5.98018l0.2163 -0.7078 1.1698 -3.8285C17.9759 16.1808 19 14.21 19 12c0 -2.20999 -1.0241 -4.18079 -2.6237 -5.46367l-1.1698 -3.82855L14.9902 2H9.7501Zm2.379 14.9984c-0.0429 0.0011 -0.0859 0.0016 -0.129 0.0016 -0.0312 0 -0.0623 -0.0003 -0.0933 -0.0009C9.18839 16.9495 7 14.7303 7 12c0 -2.7187 2.16984 -4.9306 4.8722 -4.9984C11.9147 7.00054 11.9573 7 12 7c2.7614 0 5 2.23858 5 5 0 2.7183 -2.1692 4.9299 -4.8709 4.9984ZM10.4902 20l-0.3848 -1.2594C10.708 18.9096 11.3434 19 12 19c0.6567 0 1.2922 -0.0904 1.8949 -0.2595L13.51 20h-3.0198Zm3.4047 -14.74051L13.51 4h-3.0198l-0.3848 1.25942C10.708 5.0904 11.3434 5 12 5h0.0001c0.041 0 0.082 0.00035 0.1228 0.00106 0.6131 0.01055 1.207 0.09993 1.772 0.25843ZM11 9v3.9142l0.2929 0.2929 2 2 1.4142 -1.4142L13 12.0858V9h-2Z" clip-rule="evenodd" stroke-width="1"></path></g></svg>