<svg xmlns="http://www.w3.org/2000/svg" fill="none" viewBox="0 0 24 24" id="Skip-Next-Circle--Streamline-Outlined-Expansion" height="24" width="24"><desc>Skip Next Circle Streamline Icon: https://streamlinehq.com</desc><g id="skip-next-circle"><path id="Union" fill="#000000" fill-rule="evenodd" d="M4 12c0 -4.41828 3.58172 -8 8 -8 4.4183 0 8 3.58172 8 8 0 4.4183 -3.5817 8 -8 8 -4.41828 0 -8 -3.5817 -8 -8Zm8 -10C6.47715 2 2 6.47715 2 12c0 5.5228 4.47715 10 10 10 5.5228 0 10 -4.4772 10 -10 0 -5.52285 -4.4772 -10 -10 -10ZM8 8l6.5 4L8 16V8Zm6.5 4v4h2V8h-2v4Z" clip-rule="evenodd" stroke-width="1"></path></g></svg>